<?xml version="1.0" encoding="utf-8"?>
<svg version="1.1" xmlns="http://www.w3.org/2000/svg" viewBox="0 0 88 88">
	<path fill="white" d="M54.822,83.297c-0.143,1.545,1.084,2.918,2.727,3.055l19.926,1.637
		c1.643,0.138,3.105-1.018,3.25-2.562l1.555-16.432l-25.9-2.132L54.822,83.297z M5.721,68.995l1.557,16.432
		c0.143,1.544,1.607,2.7,3.25,2.562l19.926-1.637c1.639-0.137,2.867-1.51,2.727-3.055l-1.557-16.434L5.721,68.995z M3.154,41.913
		L4.76,58.864l25.902-2.131L29.057,39.8C29.02,39.393,29,38.971,29,38.555c0-7.777,6.729-14.105,15-14.105s15,6.329,15,14.105
		c0,0.416-0.02,0.838-0.057,1.246l-1.605,16.932l25.902,2.131l1.605-16.951C84.947,40.793,85,39.669,85,38.555
		C85,17.294,66.607,0,44,0S3,17.294,3,38.555C3,39.669,3.053,40.793,3.154,41.913z"/>
</svg>
